# xmcd
#
# Track frame offsets: 
#        150
#        27470
#        49989
#        73599
#        92594
#        115239
#        128426
#        148279
#        168077
#        187940
#        202977
#        220777
#
# Disc length: 3173 seconds
#
# Revision: 0
# Processed by: cddbd v1.5.2PL0 Copyright (c) Steve Scherf et al.
# Submitted via: ExactAudioCopy v1.3
#
DISCID=a70c630c
DTITLE=Big Chico - 25 Anos Celebration
DYEAR=2018
DGENRE=Blues
TTITLE0=Humblebug
TTITLE1=St. Paul Woman
TTITLE2=Girls And Money
TTITLE3=I Cry For You
TTITLE4=Sista Rebecca
TTITLE5=Too Late Brother
TTITLE6=Hey Guy
TTITLE7=Last Chance
TTITLE8=I Got The Blues
TTITLE9=Trouble In My Way
TTITLE10=Big Chico And Jumpin'
TTITLE11=Dream Lover (Bonus)
EXTD=
EXTT0=
EXTT1=
EXTT2=
EXTT3=
EXTT4=
EXTT5=
EXTT6=
EXTT7=
EXTT8=
EXTT9=
EXTT10=
EXTT11=
PLAYORDER=
